<svg height="552" viewBox="0 -.52 567 124.69" width="2500" xmlns="http://www.w3.org/2000/svg"><path d="m291.46 35.3h20.97c.12 1.61.24 3.13.39 5.17 4.33-4.98 9.76-5.37 15.46-5.32 14.19.12 28.38.03 42.58.04 17.23.01 28.09 10.88 28.09 28.07v60.62h-20.89v-3.4c0-17.23.01-34.45 0-51.68 0-9.65-5-14.63-14.65-14.63-12.23-.01-24.47-.02-36.7 0-8.92.01-14.04 5.13-14.05 14.03-.01 17.32 0 34.65 0 51.97v3.69h-21.18c-.02-29.44-.02-58.84-.02-88.56zm-248.81.07h21.01c.07 1.61.14 3.05.23 4.92 1.09-.93 1.94-1.72 3.24-2.38 1.3-.67 2.65-1.21 4.05-1.64 4.24-1.28 8.61-1.02 12.98-1.06 4.67-.05 9.34-.07 14.01-.07 8.45-.01 16.91.04 25.36.08 15.4.08 26.58 11.44 26.59 26.91.02 19.57.01 39.14 0 58.71 0 .96-.08 1.91-.14 3.23-6.58 0-13.01.03-19.43-.07-.45-.01-1.11-.89-1.28-1.48-.23-.82-.09-1.75-.09-2.63 0-17.12.01-34.25-.01-51.37-.01-9.24-5.12-14.34-14.33-14.34-12.33 0-24.66-.01-36.99.01-8.94.02-14.06 5.13-14.06 14-.01 17.42 0 34.83-.01 52.25v3.41h-21.12c-.01-29.38-.01-58.78-.01-88.48zm524.35 88.69c-9.26 0-17.57.06-25.87-.08-.96-.02-2.07-.96-2.84-1.74-8.75-8.83-17.45-17.7-26.13-26.6-.67-.69-1.06-1.67-1.41-2.23-6.43 6.23-12.29 11.83-18.06 17.52-3.76 3.71-7.32 7.63-11.16 11.25-1.07 1.01-2.83 1.78-4.29 1.81-7.82.18-15.64.08-24.41.08 7.66-7.79 14.78-15.05 21.92-22.3 7.19-7.31 14.39-14.61 21.74-22.07-14.49-14.74-28.77-29.3-43.47-44.28 1.35-.12 2.08-.23 2.8-.23 6.95-.01 13.9-.12 20.85.08 1.55.04 3.45.78 4.54 1.86 8.7 8.6 17.25 17.34 25.82 26.07.88.9 1.56 2 2.39 3.09 2.81-2.72 5.15-4.91 7.4-7.19 7.29-7.38 14.51-14.83 21.88-22.13.97-.96 2.65-1.68 4.01-1.71 7.79-.16 15.59-.08 24.29-.08-14.85 15.14-29.11 29.69-43.65 44.52 14.4 14.64 28.7 29.17 43.65 44.36zm-339.58-69.8h-30.74v69.63h-21.22v-69.63c-3.61 0-7-.2-10.35.06-3.26.25-5.03-.63-6.13-4.02-1.89-5.83-5.14-10.96-10.9-15.18h27.41c0-3.24.12-6.05-.02-8.85-.82-16.29 8.26-24.31 21.74-25.74 9.83-1.05 19.86-.21 30-.21v18.03c-2.73 0-5.43-.04-8.14.01-5.37.1-10.76.07-16.12.45-4.23.3-6.1 2.46-6.39 6.63-.16 2.34-.11 4.69-.13 7.04-.01.75.06 1.5.1 2.25 0 .03 0 .07.03.09.02.03.06.03.1.03 1.01.05 2.02.13 3.02.13 8.22.01 16.44.1 24.65-.05 2.48-.04 3.19.79 3.12 3.18-.13 5.26-.03 10.53-.03 16.15zm-206.63 69.68h-20.79v-114.23h20.79zm397.6-88.64h20.95v88.55h-20.95zm-151.5 88.65h-20.86v-88.92c6.51 0 12.93-.04 19.35.07.51.01 1.18 1 1.46 1.67.25.58.05 1.35.05 2.03v81.32zm-20.96-105.87v-17.95h21.47v17.95zm193.18-18.03v18.1h-21.25v-18.1z"/></svg>