<svg width="112" height="100" viewBox="0 0 112 100" fill="none" xmlns="http://www.w3.org/2000/svg">
<rect width="112" height="100" fill="#1E1E1E"/>
<path fill-rule="evenodd" clip-rule="evenodd" d="M15.8809 53.8262C16.8082 54.2585 17.6583 54.4747 18.4311 54.4747C19.1266 54.4747 19.4743 54.2585 19.4743 53.8262C19.4743 52.8751 18.547 52.1833 16.6923 51.751C15.5331 51.4916 14.2966 50.7134 12.9829 49.4163C11.6692 48.0329 10.4327 46.39 9.2735 44.4877C8.11431 42.5854 7.18696 40.6399 6.49145 38.6511C5.79594 36.5759 5.44818 34.7168 5.44818 33.0739C5.44818 32.1228 5.5641 31.2581 5.79594 30.4799C7.26424 25.3783 9.54398 21.7034 12.6351 19.4552C15.8036 17.2071 19.6675 16.083 24.227 16.083C24.9245 16.083 25.6317 16.1035 26.3485 16.1446C26.8952 14.7477 27.5184 13.4851 28.2179 12.357C24.8452 11.8146 21.6215 11.5434 18.547 11.5434C6.18233 11.5434 0 17.1638 0 28.4047V30.2205C0 30.7393 0.0386396 31.1716 0.115919 31.5175C0.425035 34.6303 1.42966 37.8297 3.12981 41.1154C4.82995 44.3147 6.87784 47.0817 9.2735 49.4163C11.5146 51.6645 13.7171 53.1345 15.8809 53.8262ZM18.1992 96.1089C18.0447 98.703 18.8561 100 20.6335 100C21.6382 100 22.9133 99.3947 24.4589 98.1842C24.8452 97.8383 25.3862 97.3627 26.0817 96.7575C26.7772 96.2387 27.6273 95.5901 28.6319 94.8119C28.7865 94.639 29.0956 94.3796 29.5593 94.0337C30.0229 93.6879 30.5639 93.2987 31.1821 92.8664C31.8004 92.3476 32.3413 91.872 32.805 91.4397C33.2687 91.0938 33.6551 90.7479 33.9642 90.4021C34.2733 90.0562 34.4279 89.6239 34.4279 89.1051C34.4279 88.6727 34.2733 88.4566 33.9642 88.4566C33.7323 88.4566 33.5392 88.543 33.3846 88.716C28.9024 92.607 25.8112 94.5525 24.1111 94.5525C23.0292 94.5525 22.4882 93.8176 22.4882 92.3476C22.4882 91.6559 22.6042 90.7912 22.836 89.7536C23.4542 87.0731 24.7293 83.5279 26.6613 79.118C28.5933 74.6217 30.9503 69.693 33.7323 64.332C36.5144 58.971 39.3737 53.6965 42.3103 48.5084C44.5514 44.6174 46.522 41.2451 48.2222 38.3917C49.9996 35.4518 51.5066 33.0307 52.743 31.1284C53.3613 30.0043 53.0521 29.4423 51.8157 29.4423C50.5019 29.4423 49.1109 30.0043 47.6426 31.1284C45.9425 32.4254 44.3196 34.4142 42.774 37.0947C41.3057 39.7752 39.3737 43.5365 36.9781 48.3787C33.5005 55.2097 30.5639 61.176 28.1683 66.2776C25.8499 71.2927 24.0725 75.3999 22.836 78.5992C20.3631 84.8249 18.8175 90.6615 18.1992 96.1089Z" fill="#677FF9"/>
<path d="M29.8136 86.1219C29.5045 86.1219 29.2727 85.6896 29.1181 84.8249C28.9635 83.9602 28.8863 83.4847 28.8863 83.3982C28.8863 82.9658 29.0022 82.62 29.234 82.3606C31.7842 80.8906 33.3685 80.0259 33.9867 79.7665C34.064 79.6801 34.2185 79.6368 34.4504 79.6368C34.8368 79.6368 34.914 80.1989 34.6822 81.323C34.2958 82.8794 34.1026 84.0467 34.1026 84.8249C34.1026 85.0843 33.8708 85.3005 33.4071 85.4734C32.8661 85.6463 32.2093 85.7761 31.4365 85.8625C30.741 86.0355 30.2 86.1219 29.8136 86.1219Z" fill="#558BF8"/>
<path fill-rule="evenodd" clip-rule="evenodd" d="M35.4936 42.2828C36.421 42.7151 37.2711 42.9313 38.0438 42.9313C38.7394 42.9313 39.0871 42.7151 39.0871 42.2828C39.0871 41.3316 38.1598 40.6399 36.3051 40.2075C35.1459 39.9481 33.9094 39.1699 32.5957 37.8729C31.2819 36.4894 30.0455 34.8465 28.8863 32.9442C27.7271 31.0419 26.7997 29.0964 26.1042 27.1077C25.4087 25.0324 25.061 23.1734 25.061 21.5305C25.061 20.5793 25.1769 19.7147 25.4087 18.9365C25.6918 17.9528 26.0051 17.0222 26.3485 16.1446C26.8952 14.7477 27.5184 13.4851 28.2179 12.357C29.3582 10.5182 30.7015 9.03647 32.2479 7.9118C35.4164 5.66364 39.2803 4.53956 43.8398 4.53956C48.0129 4.53956 52.5337 5.27454 57.4023 6.74449C62.2709 8.21444 68.3759 10.3329 75.7174 13.0999C80.9724 15.0886 85.3773 16.6883 88.9322 17.8988C92.5643 19.0229 95.8873 19.8011 98.9012 20.2335C99.2103 20.3199 99.5194 20.3632 99.8285 20.3632H101.104C104.195 20.3632 106.784 19.4985 108.87 17.7691C110.957 16.0398 112 14.1807 112 12.192C112 11.6732 111.923 11.3273 111.768 11.1543C111.073 10.1167 110.416 9.59793 109.798 9.59793C109.257 9.59793 108.986 10.1167 108.986 11.1543V11.6732C108.986 13.0566 108.407 14.3104 107.247 15.4345C106.165 16.5586 104.349 17.1206 101.799 17.1206C99.5581 17.1206 96.9306 16.6451 93.9167 15.6939C92.6802 15.2616 91.2892 14.786 89.7436 14.2672C88.2753 13.6619 86.6524 13.0134 84.875 12.3217C75.0606 8.60355 66.3667 5.62041 58.7933 3.37225C51.2972 1.12408 44.4194 0 38.1598 0C25.7951 0 19.6128 5.62041 19.6128 16.8612V18.677C19.6128 19.1959 19.6514 19.6282 19.7287 19.9741C20.0378 23.0869 21.0424 26.2862 22.7426 29.572C24.4427 32.7713 26.4906 35.5383 28.8863 37.8729C31.1274 40.1211 33.3298 41.591 35.4936 42.2828ZM37.812 84.5655C37.6575 87.1595 38.4689 88.4566 40.2463 88.4566C41.2509 88.4566 42.526 87.8513 44.0716 86.6407C44.458 86.2949 44.999 85.8193 45.6945 85.214C46.39 84.6952 47.2401 84.0467 48.2447 83.2685C48.3993 83.0955 48.7084 82.8361 49.172 82.4903C49.6357 82.1444 50.1767 81.7553 50.7949 81.323C51.4131 80.8042 51.9541 80.3286 52.4178 79.8962C52.8814 79.5504 53.2678 79.2045 53.577 78.8586C53.8861 78.5128 54.0406 78.0804 54.0406 77.5616C54.0406 77.1293 53.8861 76.9131 53.577 76.9131C53.3451 76.9131 53.1519 76.9996 52.9974 77.1725C48.5152 81.0636 45.424 83.0091 43.7239 83.0091C42.642 83.0091 42.101 82.2741 42.101 80.8042C42.101 80.1124 42.2169 79.2477 42.4488 78.2101C43.067 75.5296 44.3421 71.9844 46.2741 67.5746C48.2061 63.0783 50.5631 58.1496 53.3451 52.7886C56.1272 47.4276 58.9865 42.1531 61.9231 36.965C63.728 33.8313 65.3575 31.0341 66.8115 28.5734C65.2541 28.0254 63.5635 27.4165 61.7396 26.7465C60.3658 29.3113 58.6495 32.6742 56.5908 36.8353C53.1133 43.6662 50.1767 49.6325 47.781 54.7341C45.4626 59.7492 43.6852 63.8565 42.4488 67.0558C39.9758 73.2815 38.4302 79.118 37.812 84.5655ZM63.8057 23.3156C64.2884 23.497 64.7739 23.6801 65.2622 23.8651C66.5173 24.3535 67.6953 24.8204 68.7962 25.2658C70.1622 23.028 71.3487 21.1344 72.3558 19.585C72.974 18.4609 72.6649 17.8988 71.4284 17.8988C70.1147 17.8988 68.7237 18.4609 67.2554 19.585C66.0678 20.491 64.9179 21.7345 63.8057 23.3156Z" fill="#0DCCB1"/>
<path d="M78.3836 72.8923C76.7607 72.6329 75.6401 71.9844 75.0219 70.9468C74.481 69.9957 74.2105 68.6554 74.2105 66.9261C74.2105 66.4937 74.2491 65.802 74.3264 64.8508C74.481 63.8997 74.6355 62.7324 74.7901 61.3489V60.3113C74.7901 59.1007 74.5969 58.409 74.2105 58.236C74.1332 58.1496 73.94 58.1063 73.6309 58.1063C73.0899 58.1063 72.0853 58.6684 70.617 59.7925C70.5397 59.8789 70.1147 60.3113 69.3419 61.0895C68.5691 61.7812 67.4486 62.8188 65.9803 64.2023C61.7299 68.4392 58.8319 70.3415 57.2863 69.9092C55.6635 69.4769 54.8521 68.2663 54.8521 66.2776C54.8521 64.3753 55.4703 62.0839 56.7068 59.4034C57.7114 56.9823 58.9479 54.6476 60.4162 52.3995C61.8845 50.0648 63.0436 48.5517 63.8937 47.8599C64.512 47.4276 65.0143 47.2114 65.4007 47.2114C65.7871 47.2114 66.1348 47.3843 66.4439 47.7302C66.5985 47.9031 66.6758 48.1626 66.6758 48.5084C66.6758 48.8543 66.4826 49.2434 66.0962 49.6757C65.3234 50.5404 64.5892 51.8807 63.8937 53.6965C63.1982 55.4258 62.8505 56.9823 62.8505 58.3657C62.8505 58.5387 62.8505 58.7549 62.8505 59.0143C62.9277 59.2737 63.005 59.5763 63.0823 59.9222C63.4687 60.1816 63.8937 60.3113 64.3574 60.3113C65.2847 60.3113 66.5599 59.7925 68.1827 58.7549C68.8009 58.3225 69.651 57.7172 70.7329 56.939C71.8148 56.0744 73.1286 54.9935 74.6742 53.6965C75.2924 53.1777 75.9879 52.9183 76.7607 52.9183C77.6108 52.9183 78.3063 53.2642 78.8472 53.9559C79.4655 54.5612 79.7746 55.4258 79.7746 56.5499C79.7746 56.7229 79.7359 56.9823 79.6587 57.3281C79.6587 57.5875 79.62 57.9334 79.5427 58.3657C79.3882 59.0575 79.2336 59.706 79.0791 60.3113C78.9245 60.9166 78.8086 61.5218 78.7313 62.1271C78.654 62.473 78.6154 62.9485 78.6154 63.5538C78.6154 64.0726 78.6154 64.6779 78.6154 65.3696C78.6154 67.2719 79.5041 68.2231 81.2815 68.2231C82.0543 68.2231 82.8271 68.0934 83.5999 67.834C84.45 67.4881 85.0682 67.099 85.4546 66.6667C89.164 63.035 92.7961 58.3225 96.351 52.5292L96.235 50.9728C96.1578 50.1081 96.3123 49.2866 96.6987 48.5084C97.0851 47.6437 97.5874 46.7791 98.2057 45.9144C98.4375 45.5685 98.7466 45.3956 99.133 45.3956C99.5194 45.3956 99.8672 45.6118 100.176 46.0441C100.563 46.39 100.756 46.8655 100.756 47.4708C100.756 47.9031 100.64 48.3787 100.408 48.8975C99.9444 49.8487 99.2103 51.2322 98.2057 53.048C97.201 54.7773 96.0418 56.6796 94.7281 58.7549C93.4144 60.8301 92.1006 62.7756 90.7869 64.5914C89.4731 66.4073 88.2753 67.834 87.1934 68.8716V69.0013C85.8796 70.2983 84.3727 71.2927 82.6725 71.9844C80.9724 72.7626 79.5427 73.0653 78.3836 72.8923Z" fill="#93DEE0"/>
<path d="M39.1805 14.9157C35.3663 13.7717 31.7121 12.9188 28.2179 12.357C27.5184 13.4851 26.8952 14.7477 26.3485 16.1446C29.921 16.3492 33.7346 17.0637 37.7895 18.2879C42.6581 19.7579 48.7631 21.8763 56.1047 24.6433C58.1063 25.4008 59.9847 26.1019 61.7396 26.7465C63.5635 27.4165 65.2541 28.0254 66.8115 28.5734C67.6898 28.8824 68.5258 29.172 69.3194 29.4423C72.9515 30.5664 76.2745 31.3446 79.2884 31.7769C79.5975 31.8634 79.9066 31.9066 80.2158 31.9066H81.4909C84.582 31.9066 87.1709 31.0419 89.2574 29.3126C91.344 27.5832 92.3872 25.7242 92.3872 23.7354C92.3872 23.2166 92.3099 22.8707 92.1554 22.6978C91.4599 21.6602 90.803 21.1414 90.1848 21.1414C89.6438 21.1414 89.3733 21.6602 89.3733 22.6978V23.2166C89.3733 24.6001 88.7937 25.8539 87.6346 26.9779C86.5527 28.102 84.7366 28.6641 82.1864 28.6641C79.9453 28.6641 77.3178 28.1885 74.3039 27.2373C73.0674 26.805 71.6764 26.3294 70.1308 25.8106C69.6993 25.6327 69.2544 25.4511 68.7962 25.2658C67.6953 24.8204 66.5173 24.3535 65.2622 23.8651C64.7739 23.6801 64.2884 23.497 63.8057 23.3156C54.5855 19.852 46.3771 17.052 39.1805 14.9157Z" fill="#677FF9"/>
</svg>
